<svg width="16" height="16" viewBox="0 0 16 16" fill="none" xmlns="http://www.w3.org/2000/svg">
<g id="Frame" clip-path="url(#clip0_1264_272)">
<path id="Vector" d="M12.8338 5.65434H7.21485C6.52523 5.65434 5.96619 6.21339 5.96619 6.903V12.522C5.96619 13.2116 6.52523 13.7706 7.21485 13.7706H12.8338C13.5234 13.7706 14.0825 13.2116 14.0825 12.522V6.903C14.0825 6.21339 13.5234 5.65434 12.8338 5.65434Z" stroke="#4361EE" stroke-width="1.12379" stroke-linecap="round" stroke-linejoin="round"/>
<path id="Vector_2" d="M3.46845 9.39984H2.84412C2.51295 9.39984 2.19535 9.26828 1.96118 9.03411C1.72701 8.79994 1.59546 8.48234 1.59546 8.15118V2.53221C1.59546 2.20104 1.72701 1.88344 1.96118 1.64927C2.19535 1.4151 2.51295 1.28355 2.84412 1.28355H8.46309C8.79426 1.28355 9.11186 1.4151 9.34603 1.64927C9.5802 1.88344 9.71175 2.20104 9.71175 2.53221V3.15654" stroke="#4361EE" stroke-width="1.12379" stroke-linecap="round" stroke-linejoin="round"/>
</g>
<defs>
<clipPath id="clip0_1264_272">
<rect width="14.9839" height="14.9839" fill="white" transform="translate(0.347168 0.0353661)"/>
</clipPath>
</defs>
</svg>
