<svg width="45" height="35" viewBox="0 0 45 35" fill="none" xmlns="http://www.w3.org/2000/svg">
<rect width="45" height="35" rx="4" fill="#D9D9D9" fill-opacity="0.5"/>
<path d="M20.8537 17.5054C20.8537 16.6125 21.5854 15.8982 22.5 15.8982C23.4146 15.8982 24.1463 16.6125 24.1463 17.5054C24.1463 18.3982 23.4146 19.1125 22.5 19.1125C21.5854 19.1125 20.8537 18.3982 20.8537 17.5054ZM16.6463 19.1125C17.561 19.1125 18.2927 18.3982 18.2927 17.5054C18.2927 16.6125 17.561 15.8982 16.6463 15.8982C15.7317 15.8982 15 16.6125 15 17.5054C15 18.3982 15.7317 19.1125 16.6463 19.1125ZM28.3537 19.1125C29.2683 19.1125 30 18.3982 30 17.5054C30 16.6125 29.2683 15.8982 28.3537 15.8982C27.439 15.8982 26.7073 16.6125 26.7073 17.5054C26.7073 18.3982 27.439 19.1125 28.3537 19.1125Z" fill="#46515F"/>
</svg>
