<svg width="22" height="22" viewBox="0 0 22 22" fill="none" xmlns="http://www.w3.org/2000/svg">
<g id="Frame" clip-path="url(#clip0_109_726)">
<path id="Vector" d="M11 13.75C12.5188 13.75 13.75 12.5188 13.75 11C13.75 9.48122 12.5188 8.25 11 8.25C9.48122 8.25 8.25 9.48122 8.25 11C8.25 12.5188 9.48122 13.75 11 13.75Z" stroke="#4361EE" stroke-width="1.5" stroke-linecap="round" stroke-linejoin="round"/>
<path id="Vector_2" d="M17.7834 13.7507C17.6614 14.0272 17.625 14.3339 17.6789 14.6313C17.7328 14.9286 17.8746 15.203 18.0859 15.4191L18.1409 15.4741C18.3114 15.6443 18.4466 15.8465 18.5389 16.0691C18.6311 16.2916 18.6786 16.5302 18.6786 16.7711C18.6786 17.0121 18.6311 17.2506 18.5389 17.4732C18.4466 17.6958 18.3114 17.898 18.1409 18.0682C17.9706 18.2387 17.7685 18.3739 17.5459 18.4662C17.3233 18.5584 17.0848 18.6059 16.8438 18.6059C16.6029 18.6059 16.3643 18.5584 16.1418 18.4662C15.9192 18.3739 15.717 18.2387 15.5467 18.0682L15.4917 18.0132C15.2757 17.8019 15.0013 17.6601 14.704 17.6062C14.4066 17.5523 14.0999 17.5887 13.8234 17.7107C13.5523 17.8269 13.3211 18.0199 13.1582 18.2658C12.9953 18.5117 12.9079 18.7999 12.9067 19.0949V19.2507C12.9067 19.737 12.7136 20.2033 12.3698 20.5471C12.026 20.8909 11.5596 21.0841 11.0734 21.0841C10.5872 21.0841 10.1209 20.8909 9.77705 20.5471C9.43324 20.2033 9.24008 19.737 9.24008 19.2507V19.1682C9.23298 18.8648 9.13477 18.5706 8.95822 18.3237C8.78166 18.0768 8.53492 17.8888 8.25008 17.7841C7.9736 17.662 7.6669 17.6256 7.36954 17.6796C7.07218 17.7335 6.79779 17.8752 6.58175 18.0866L6.52675 18.1416C6.35648 18.312 6.15429 18.4472 5.93172 18.5395C5.70916 18.6318 5.47059 18.6792 5.22967 18.6792C4.98874 18.6792 4.75017 18.6318 4.52761 18.5395C4.30504 18.4472 4.10285 18.312 3.93258 18.1416C3.76212 17.9713 3.6269 17.7691 3.53464 17.5465C3.44238 17.324 3.39489 17.0854 3.39489 16.8445C3.39489 16.6035 3.44238 16.365 3.53464 16.1424C3.6269 15.9199 3.76212 15.7177 3.93258 15.5474L3.98758 15.4924C4.19891 15.2764 4.34067 15.002 4.39459 14.7046C4.4485 14.4072 4.4121 14.1005 4.29008 13.8241C4.17388 13.5529 3.98094 13.3217 3.73501 13.1588C3.48908 12.996 3.20089 12.9086 2.90591 12.9074H2.75008C2.26385 12.9074 1.79754 12.7142 1.45372 12.3704C1.1099 12.0266 0.916748 11.5603 0.916748 11.0741C0.916748 10.5878 1.1099 10.1215 1.45372 9.77769C1.79754 9.43388 2.26385 9.24072 2.75008 9.24072H2.83258C3.13599 9.23363 3.43025 9.13541 3.67711 8.95886C3.92396 8.7823 4.11199 8.53556 4.21675 8.25072C4.33877 7.97424 4.37517 7.66755 4.32125 7.37018C4.26734 7.07282 4.12557 6.79843 3.91425 6.58239L3.85925 6.52739C3.68879 6.35712 3.55357 6.15493 3.46131 5.93236C3.36904 5.7098 3.32156 5.47123 3.32156 5.23031C3.32156 4.98938 3.36904 4.75081 3.46131 4.52825C3.55357 4.30569 3.68879 4.10349 3.85925 3.93322C4.02952 3.76277 4.23171 3.62754 4.45427 3.53528C4.67684 3.44302 4.9154 3.39553 5.15633 3.39553C5.39726 3.39553 5.63583 3.44302 5.85839 3.53528C6.08095 3.62754 6.28315 3.76277 6.45342 3.93322L6.50842 3.98822C6.72445 4.19955 6.99885 4.34131 7.29621 4.39523C7.59357 4.44914 7.90027 4.41274 8.17675 4.29072H8.25008C8.5212 4.17452 8.75243 3.98158 8.9153 3.73565C9.07817 3.48972 9.16557 3.20153 9.16675 2.90656V2.75072C9.16675 2.26449 9.3599 1.79818 9.70372 1.45436C10.0475 1.11054 10.5139 0.917389 11.0001 0.917389C11.4863 0.917389 11.9526 1.11054 12.2964 1.45436C12.6403 1.79818 12.8334 2.26449 12.8334 2.75072V2.83322C12.8346 3.12819 12.922 3.41638 13.0849 3.66232C13.2477 3.90825 13.479 4.10119 13.7501 4.21739C14.0266 4.33941 14.3333 4.37581 14.6306 4.32189C14.928 4.26798 15.2024 4.12621 15.4184 3.91489L15.4734 3.85989C15.6437 3.68943 15.8459 3.55421 16.0684 3.46195C16.291 3.36969 16.5296 3.3222 16.7705 3.3222C17.0114 3.3222 17.25 3.36969 17.4726 3.46195C17.6951 3.55421 17.8973 3.68943 18.0676 3.85989C18.238 4.03016 18.3733 4.23235 18.4655 4.45492C18.5578 4.67748 18.6053 4.91604 18.6053 5.15697C18.6053 5.3979 18.5578 5.63647 18.4655 5.85903C18.3733 6.08159 18.238 6.28379 18.0676 6.45406L18.0126 6.50906C17.8013 6.7251 17.6595 6.99949 17.6056 7.29685C17.5517 7.59421 17.5881 7.90091 17.7101 8.17739V8.25072C17.8263 8.52184 18.0192 8.75307 18.2652 8.91594C18.5111 9.07881 18.7993 9.16621 19.0942 9.16739H19.2501C19.7363 9.16739 20.2026 9.36054 20.5464 9.70436C20.8903 10.0482 21.0834 10.5145 21.0834 11.0007C21.0834 11.487 20.8903 11.9533 20.5464 12.2971C20.2026 12.6409 19.7363 12.8341 19.2501 12.8341H19.1676C18.8726 12.8352 18.5844 12.9226 18.3385 13.0855C18.0926 13.2484 17.8996 13.4796 17.7834 13.7507V13.7507Z" stroke="#4361EE" stroke-width="1.5" stroke-linecap="round" stroke-linejoin="round"/>
</g>
<defs>
<clipPath id="clip0_109_726">
<rect width="22" height="22" fill="white"/>
</clipPath>
</defs>
</svg>
