<svg width="15" height="18" viewBox="0 0 15 18" fill="none" xmlns="http://www.w3.org/2000/svg">
<path d="M10.625 2.43449C10.7892 2.25167 10.984 2.10664 11.1985 2.0077C11.413 1.90876 11.6429 1.85783 11.875 1.85783C12.1071 1.85783 12.337 1.90876 12.5515 2.0077C12.766 2.10664 12.9608 2.25167 13.125 2.43449C13.2892 2.61731 13.4194 2.83435 13.5082 3.07322C13.597 3.31209 13.6428 3.56811 13.6428 3.82666C13.6428 4.08521 13.597 4.34122 13.5082 4.58009C13.4194 4.81896 13.2892 5.036 13.125 5.21882L4.6875 14.616L1.25 15.6601L2.1875 11.8316L10.625 2.43449Z" stroke="#4361EE" stroke-width="1.5" stroke-linecap="round" stroke-linejoin="round"/>
</svg>
