<svg width="15" height="18" viewBox="0 0 15 18" fill="none" xmlns="http://www.w3.org/2000/svg">
<g id="Frame">
<path id="Vector" d="M7.5 9.39404C7.84518 9.39404 8.125 9.08239 8.125 8.69795C8.125 8.31352 7.84518 8.00187 7.5 8.00187C7.15482 8.00187 6.875 8.31352 6.875 8.69795C6.875 9.08239 7.15482 9.39404 7.5 9.39404Z" stroke="#0E1726" stroke-width="1.5" stroke-linecap="round" stroke-linejoin="round"/>
<path id="Vector_2" d="M11.875 9.39404C12.2202 9.39404 12.5 9.08239 12.5 8.69795C12.5 8.31352 12.2202 8.00187 11.875 8.00187C11.5298 8.00187 11.25 8.31352 11.25 8.69795C11.25 9.08239 11.5298 9.39404 11.875 9.39404Z" stroke="#0E1726" stroke-width="1.5" stroke-linecap="round" stroke-linejoin="round"/>
<path id="Vector_3" d="M3.125 9.39404C3.47018 9.39404 3.75 9.08239 3.75 8.69795C3.75 8.31352 3.47018 8.00187 3.125 8.00187C2.77982 8.00187 2.5 8.31352 2.5 8.69795C2.5 9.08239 2.77982 9.39404 3.125 9.39404Z" stroke="#0E1726" stroke-width="1.5" stroke-linecap="round" stroke-linejoin="round"/>
</g>
</svg>
